<?xml version="1.0" encoding="utf-8"?>
<!-- Generator: Adobe Illustrator 16.0.0, SVG Export Plug-In . SVG Version: 6.00 Build 0)  -->
<!DOCTYPE svg PUBLIC "-//W3C//DTD SVG 1.1//EN" "http://www.w3.org/Graphics/SVG/1.1/DTD/svg11.dtd">
<svg version="1.1" id="Layer_1" xmlns="http://www.w3.org/2000/svg" xmlns:xlink="http://www.w3.org/1999/xlink" x="0px" y="0px"
	 width="365.247px" height="219.534px" viewBox="33.693 -148.864 365.247 219.534"
	 enable-background="new 33.693 -148.864 365.247 219.534" xml:space="preserve">
<path fill="#C1272D" d="M293.388-78.208c0-8.354-2.5-16.362-7.428-23.808c-4.428-6.684-10.629-12.6-18.43-17.586
	c-15.068-9.624-34.869-14.925-55.756-14.925c-6.977,0-13.854,0.589-20.525,1.759c-4.137-3.874-8.982-7.359-14.107-10.114
	c-27.387-13.273-50.099-0.312-50.099-0.312s21.116,17.347,17.682,32.55c-9.447,9.371-14.566,20.672-14.566,32.436
	c0,0.038,0,0.075,0,0.112c0,0.037,0,0.074,0,0.113c0,11.764,5.119,23.064,14.566,32.435c3.434,15.207-17.682,32.551-17.682,32.551
	s22.712,12.96,50.099-0.312c5.125-2.754,9.968-6.241,14.107-10.113c6.672,1.166,13.548,1.756,20.525,1.756
	c20.889,0,40.688-5.299,55.756-14.92c7.801-4.988,14.002-10.902,18.43-17.587c4.928-7.446,7.428-15.458,7.428-23.809
	c0-0.038-0.002-0.075-0.002-0.112C293.386-78.132,293.388-78.171,293.388-78.208z"/>
<path fill="#FFFFFF" d="M211.774-122.717c38.676,0,70.03,20.028,70.03,44.733c0,24.703-31.354,44.733-70.03,44.733
	c-8.612,0-16.86-0.998-24.479-2.812c-7.745,9.316-24.78,22.268-41.33,18.081c5.383-5.78,13.357-15.55,11.651-31.644
	c-9.92-7.716-15.874-17.595-15.874-28.359C141.742-102.691,173.097-122.717,211.774-122.717"/>
<g>
	<g>
		<circle fill="#C1272D" cx="211.774" cy="-76.545" r="9.302"/>
	</g>
	<g>
		<circle fill="#C1272D" cx="244.118" cy="-76.545" r="9.302"/>
	</g>
	<g>
		<circle fill="#C1272D" cx="179.428" cy="-76.545" r="9.302"/>
	</g>
</g>
<g>
	<path fill="#CCCCCC" d="M211.774-39.139c-8.612,0-16.86-0.862-24.479-2.436c-6.838,7.128-20.921,16.713-35.516,16.362
		c-1.923,2.913-4.014,5.295-5.813,7.231c16.549,4.185,33.585-8.765,41.33-18.083c7.619,1.815,15.868,2.812,24.479,2.812
		c38.368,0,69.522-19.711,70.018-44.144C281.296-56.218,250.142-39.139,211.774-39.139z"/>
</g>
<g>
	<path fill="#EDEEEF" d="M70.195,41.779c0,4.7-1.753,7.788-5.121,9.26l4.841,18.382c0.21,0.844-0.21,1.263-0.983,1.263h-7.297
		c-0.701,0-1.051-0.351-1.192-0.982l-4.701-17.82h-4.841v17.682c0,0.702-0.42,1.121-1.122,1.121h-7.297
		c-0.701,0-1.122-0.421-1.122-1.121V15.68c0-0.702,0.421-1.123,1.122-1.123h17.61c6.594,0,10.103,3.507,10.103,10.103V41.779
		L70.195,41.779z M57.847,42.621c1.824,0,2.806-0.982,2.806-2.807v-13.19c0-1.822-0.982-2.804-2.806-2.804h-6.946v18.801H57.847
		L57.847,42.621z"/>
	<path fill="#EDEEEF" d="M75.804,24.661c0-6.596,3.507-10.103,10.102-10.103h7.858c6.594,0,10.102,3.507,10.102,10.103v35.921
		c0,6.593-3.508,10.101-10.102,10.101h-7.858c-6.595,0-10.102-3.508-10.102-10.101V24.661z M92.01,61.633
		c1.823,0,2.806-0.912,2.806-2.807V26.415c0-1.823-0.983-2.805-2.806-2.805h-4.068c-1.825,0-2.808,0.982-2.808,2.805v32.413
		c0,1.894,0.983,2.806,2.808,2.806H92.01L92.01,61.633z"/>
	<path fill="#EDEEEF" d="M139.012,32.237c0,0.702-0.421,1.122-1.122,1.122h-7.016c-0.772,0-1.123-0.42-1.123-1.122v-5.613
		c0-1.822-0.98-2.804-2.804-2.804h-3.648c-1.893,0-2.805,0.982-2.805,2.804v31.994c0,1.895,0.98,2.805,2.805,2.805h3.648
		c1.824,0,2.804-0.911,2.804-2.805v-5.614c0-0.701,0.351-1.123,1.123-1.123h7.016c0.703,0,1.122,0.422,1.122,1.123v7.578
		c0,6.594-3.579,10.102-10.102,10.102h-7.858c-6.594,0-10.173-3.508-10.173-10.102V24.661c0-6.596,3.579-10.103,10.173-10.103h7.858
		c6.524,0,10.102,3.507,10.102,10.103V32.237z"/>
	<path fill="#EDEEEF" d="M168.614,70.684c-0.843,0-1.332-0.351-1.614-1.051l-8.838-20.838l-2.597,4.981V69.28
		c0,0.912-0.491,1.403-1.403,1.403h-6.736c-0.912,0-1.404-0.491-1.404-1.403V15.96c0-0.91,0.492-1.402,1.404-1.402h6.736
		c0.911,0,1.403,0.49,1.403,1.402v21.749l10.804-22.099c0.352-0.701,0.843-1.052,1.614-1.052h7.366c1.052,0,1.473,0.702,0.982,1.683
		l-11.926,24.486l12.697,28.344c0.49,0.913,0.069,1.613-1.052,1.613H168.614z"/>
	<path fill="#EDEEEF" d="M210.215,22.697c0,0.701-0.281,1.192-1.123,1.192h-17.54V37.92h13.4c0.704,0,1.123,0.422,1.123,1.193v6.944
		c0,0.772-0.421,1.193-1.123,1.193h-13.4v14.172h17.54c0.844,0,1.123,0.352,1.123,1.122v7.018c0,0.7-0.281,1.119-1.123,1.119
		h-25.817c-0.632,0-1.053-0.421-1.053-1.119V15.68c0-0.702,0.421-1.123,1.053-1.123h25.817c0.844,0,1.123,0.421,1.123,1.123V22.697z
		"/>
	<path fill="#EDEEEF" d="M242.765,14.558c0.771,0,1.123,0.421,1.123,1.123v7.017c0,0.701-0.352,1.122-1.123,1.122h-8.139v45.744
		c0,0.771-0.349,1.119-1.12,1.119h-7.297c-0.704,0-1.123-0.349-1.123-1.119V23.819h-8.136c-0.704,0-1.123-0.421-1.123-1.122V15.68
		c0-0.702,0.421-1.123,1.123-1.123H242.765z"/>
	<path fill="#EDEEEF" d="M243.182,62.825c0-0.912,0.491-1.402,1.403-1.402h6.385c0.912,0,1.402,0.49,1.402,1.402v6.453
		c0,0.914-0.49,1.403-1.402,1.403h-6.385c-0.912,0-1.403-0.489-1.403-1.403V62.825z"/>
	<path fill="#EDEEEF" d="M287.519,32.237c0,0.702-0.422,1.122-1.122,1.122h-7.016c-0.771,0-1.121-0.42-1.121-1.122v-5.613
		c0-1.822-0.981-2.804-2.806-2.804h-3.648c-1.894,0-2.806,0.982-2.806,2.804v31.994c0,1.895,0.981,2.805,2.806,2.805h3.648
		c1.824,0,2.806-0.911,2.806-2.805v-5.614c0-0.701,0.35-1.123,1.121-1.123h7.016c0.704,0,1.122,0.422,1.122,1.123v7.578
		c0,6.594-3.578,10.102-10.103,10.102h-7.857c-6.595,0-10.173-3.508-10.173-10.102V24.661c0-6.596,3.578-10.103,10.173-10.103h7.857
		c6.525,0,10.103,3.507,10.103,10.103V32.237z"/>
	<path fill="#EDEEEF" d="M313.053,15.68c0-0.702,0.42-1.123,1.122-1.123h7.225c0.843,0,1.191,0.421,1.191,1.123v53.882
		c0,0.7-0.351,1.119-1.191,1.119h-7.225c-0.704,0-1.122-0.421-1.122-1.119V47.251h-8.98v22.312c0,0.702-0.421,1.121-1.122,1.121
		h-7.225c-0.844,0-1.193-0.421-1.193-1.121V15.68c0-0.702,0.35-1.123,1.193-1.123h7.225c0.704,0,1.122,0.421,1.122,1.123v22.31h8.98
		V15.68L313.053,15.68z"/>
	<path fill="#EDEEEF" d="M354.584,70.684c-0.632,0-0.98-0.351-1.123-0.982l-1.964-10.241h-12.488l-1.892,10.241
		c-0.142,0.632-0.492,0.982-1.123,0.982h-7.505c-0.771,0-1.123-0.421-0.914-1.192l11.646-53.952
		c0.141-0.701,0.561-0.981,1.192-0.981h9.752c0.632,0,1.053,0.281,1.192,0.981l11.647,53.952c0.141,0.771-0.141,1.192-0.982,1.192
		H354.584z M345.252,26.834l-4.489,24.485h8.98L345.252,26.834z"/>
	<path fill="#EDEEEF" d="M389.238,14.558c0.771,0,1.122,0.421,1.122,1.123v7.017c0,0.701-0.351,1.122-1.122,1.122h-8.137v45.744
		c0,0.771-0.352,1.119-1.123,1.119h-7.296c-0.701,0-1.122-0.349-1.122-1.119V23.819h-8.137c-0.701,0-1.121-0.421-1.121-1.122V15.68
		c0-0.702,0.422-1.123,1.121-1.123H389.238z"/>
</g>
</svg>
