<?xml version="1.0" encoding="utf-8"?>
<!-- Generator: Adobe Illustrator 16.0.0, SVG Export Plug-In . SVG Version: 6.00 Build 0)  -->
<!DOCTYPE svg PUBLIC "-//W3C//DTD SVG 1.1//EN" "http://www.w3.org/Graphics/SVG/1.1/DTD/svg11.dtd">
<svg version="1.1" id="Layer_1" xmlns="http://www.w3.org/2000/svg" xmlns:xlink="http://www.w3.org/1999/xlink" x="0px" y="0px"
	 width="286.08px" height="23.999px" viewBox="0 0 286.08 23.999" enable-background="new 0 0 286.08 23.999" xml:space="preserve">
<g>
	<path fill="#A9A8A8" d="M19.262,0c0.39,0,0.6,0.24,0.57,0.63l-2.58,22.799c-0.03,0.39-0.24,0.57-0.63,0.57h-2.94
		c-0.36,0-0.57-0.18-0.66-0.54l-3.12-13.56l-3.15,13.59c-0.09,0.33-0.3,0.51-0.66,0.51h-3c-0.39,0-0.6-0.18-0.63-0.57L0.003,0.63
		C-0.027,0.24,0.183,0,0.573,0h2.85c0.36,0,0.6,0.21,0.63,0.57l1.17,14.04h0.15L8.343,0.54C8.433,0.18,8.643,0,9.002,0h1.8
		c0.36,0,0.57,0.18,0.66,0.54l2.94,14.069h0.15l1.23-14.04c0.03-0.36,0.27-0.57,0.63-0.57H19.262z"/>
	<path fill="#A9A8A8" d="M34.202,3.48c0,0.3-0.12,0.51-0.48,0.51h-7.5v6h5.73c0.3,0,0.48,0.18,0.48,0.51v2.97
		c0,0.33-0.18,0.51-0.48,0.51h-5.73v6.06h7.5c0.36,0,0.48,0.15,0.48,0.48v3c0,0.3-0.12,0.48-0.48,0.48h-11.04
		c-0.27,0-0.45-0.18-0.45-0.48V0.48c0-0.3,0.18-0.48,0.45-0.48h11.04c0.36,0,0.48,0.18,0.48,0.48V3.48z"/>
	<path fill="#A9A8A8" d="M40.682,20.039h7.14c0.33,0,0.48,0.18,0.48,0.48v3c0,0.33-0.15,0.48-0.48,0.48H37.082
		c-0.3,0-0.48-0.15-0.48-0.48V0.48c0-0.3,0.18-0.48,0.48-0.48h3.12c0.33,0,0.48,0.18,0.48,0.48V20.039z"/>
	<path fill="#A9A8A8" d="M62.132,7.56c0,0.3-0.18,0.48-0.48,0.48h-3c-0.33,0-0.48-0.18-0.48-0.48v-2.4c0-0.78-0.42-1.2-1.2-1.2
		h-1.56c-0.81,0-1.2,0.42-1.2,1.2v13.68c0,0.81,0.42,1.2,1.2,1.2h1.56c0.78,0,1.2-0.39,1.2-1.2v-2.4c0-0.3,0.15-0.48,0.48-0.48h3
		c0.3,0,0.48,0.18,0.48,0.48v3.24c0,2.82-1.53,4.32-4.32,4.32h-3.36c-2.82,0-4.35-1.5-4.35-4.32V4.32c0-2.82,1.53-4.32,4.35-4.32
		h3.36c2.79,0,4.32,1.5,4.32,4.32V7.56z"/>
	<path fill="#A9A8A8" d="M64.532,4.32c0-2.82,1.5-4.32,4.32-4.32h3.36c2.82,0,4.32,1.5,4.32,4.32v15.359c0,2.82-1.5,4.32-4.32,4.32
		h-3.36c-2.82,0-4.32-1.5-4.32-4.32V4.32z M71.462,20.129c0.78,0,1.2-0.39,1.2-1.2V5.07c0-0.78-0.42-1.2-1.2-1.2h-1.74
		c-0.78,0-1.2,0.42-1.2,1.2v13.859c0,0.81,0.42,1.2,1.2,1.2H71.462z"/>
	<path fill="#A9A8A8" d="M95.432,0c0.39,0,0.6,0.21,0.6,0.6v22.799c0,0.39-0.21,0.6-0.6,0.6h-2.79c-0.39,0-0.6-0.21-0.6-0.6v-13.5
		h-0.21l-2.97,13.56c-0.09,0.36-0.3,0.54-0.66,0.54h-1.47c-0.36,0-0.57-0.18-0.66-0.54l-2.97-13.56h-0.21v13.5
		c0,0.39-0.21,0.6-0.6,0.6h-2.76c-0.39,0-0.6-0.21-0.6-0.6V0.6c0-0.39,0.21-0.6,0.6-0.6h3.959c0.36,0,0.57,0.18,0.66,0.54
		l3.33,14.939l3.33-14.939c0.09-0.36,0.3-0.54,0.66-0.54H95.432z"/>
	<path fill="#A9A8A8" d="M110.401,3.48c0,0.3-0.12,0.51-0.48,0.51h-7.5v6h5.73c0.3,0,0.48,0.18,0.48,0.51v2.97
		c0,0.33-0.18,0.51-0.48,0.51h-5.73v6.06h7.5c0.36,0,0.48,0.15,0.48,0.48v3c0,0.3-0.12,0.48-0.48,0.48h-11.04
		c-0.27,0-0.45-0.18-0.45-0.48V0.48c0-0.3,0.18-0.48,0.45-0.48h11.04c0.36,0,0.48,0.18,0.48,0.48V3.48z"/>
	<path fill="#A9A8A8" d="M130.622,0c0.33,0,0.48,0.18,0.48,0.48v3c0,0.3-0.15,0.48-0.48,0.48h-3.48v19.559
		c0,0.33-0.15,0.48-0.48,0.48h-3.12c-0.3,0-0.48-0.15-0.48-0.48V3.96h-3.48c-0.3,0-0.48-0.18-0.48-0.48v-3
		c0-0.3,0.18-0.48,0.48-0.48H130.622z"/>
	<path fill="#A9A8A8" d="M132.302,4.32c0-2.82,1.5-4.32,4.32-4.32h3.36c2.82,0,4.32,1.5,4.32,4.32v15.359c0,2.82-1.5,4.32-4.32,4.32
		h-3.36c-2.82,0-4.32-1.5-4.32-4.32V4.32z M139.232,20.129c0.78,0,1.2-0.39,1.2-1.2V5.07c0-0.78-0.42-1.2-1.2-1.2h-1.74
		c-0.78,0-1.2,0.42-1.2,1.2v13.859c0,0.81,0.42,1.2,1.2,1.2H139.232z"/>
	<path fill="#A9A8A8" d="M164.521,0c0.33,0,0.48,0.18,0.48,0.48v3c0,0.3-0.15,0.48-0.48,0.48h-3.48v19.559
		c0,0.33-0.15,0.48-0.48,0.48h-3.12c-0.3,0-0.48-0.15-0.48-0.48V3.96h-3.48c-0.3,0-0.48-0.18-0.48-0.48v-3
		c0-0.3,0.18-0.48,0.48-0.48H164.521z"/>
	<path fill="#A9A8A8" d="M174.721,0.48c0-0.3,0.18-0.48,0.48-0.48h3.09c0.36,0,0.51,0.18,0.51,0.48v23.039
		c0,0.3-0.15,0.48-0.51,0.48h-3.09c-0.3,0-0.48-0.18-0.48-0.48v-9.54h-3.84v9.54c0,0.3-0.18,0.48-0.48,0.48h-3.09
		c-0.36,0-0.51-0.18-0.51-0.48V0.48c0-0.3,0.15-0.48,0.51-0.48h3.09c0.3,0,0.48,0.18,0.48,0.48v9.54h3.84V0.48z"/>
	<path fill="#A9A8A8" d="M193.172,3.48c0,0.3-0.12,0.51-0.48,0.51h-7.499v6h5.729c0.3,0,0.479,0.18,0.479,0.51v2.97
		c0,0.33-0.18,0.51-0.479,0.51h-5.729v6.06h7.499c0.36,0,0.48,0.15,0.48,0.48v3c0,0.3-0.12,0.48-0.48,0.48h-11.039
		c-0.271,0-0.45-0.18-0.45-0.48V0.48c0-0.3,0.18-0.48,0.45-0.48h11.039c0.36,0,0.48,0.18,0.48,0.48V3.48z"/>
	<path fill="#A9A8A8" d="M214.801,11.64c0,2.01-0.75,3.33-2.189,3.959l2.069,7.86c0.091,0.36-0.09,0.54-0.42,0.54h-3.119
		c-0.301,0-0.45-0.15-0.511-0.42l-2.01-7.62h-2.069v7.56c0,0.3-0.181,0.48-0.48,0.48h-3.12c-0.3,0-0.479-0.18-0.479-0.48V0.48
		c0-0.3,0.18-0.48,0.479-0.48h7.53c2.819,0,4.319,1.5,4.319,4.32V11.64z M209.521,12c0.78,0,1.2-0.42,1.2-1.2V5.16
		c0-0.78-0.42-1.2-1.2-1.2h-2.97V12H209.521z"/>
	<path fill="#A9A8A8" d="M216.602,4.32c0-2.82,1.5-4.32,4.319-4.32h3.36c2.82,0,4.319,1.5,4.319,4.32v15.359
		c0,2.82-1.499,4.32-4.319,4.32h-3.36c-2.819,0-4.319-1.5-4.319-4.32V4.32z M223.531,20.129c0.78,0,1.2-0.39,1.2-1.2V5.07
		c0-0.78-0.42-1.2-1.2-1.2h-1.74c-0.779,0-1.199,0.42-1.199,1.2v13.859c0,0.81,0.42,1.2,1.199,1.2H223.531z"/>
	<path fill="#A9A8A8" d="M243.03,7.56c0,0.3-0.18,0.48-0.479,0.48h-3c-0.33,0-0.48-0.18-0.48-0.48v-2.4c0-0.78-0.42-1.2-1.199-1.2
		h-1.561c-0.81,0-1.2,0.42-1.2,1.2v13.68c0,0.81,0.42,1.2,1.2,1.2h1.561c0.779,0,1.199-0.39,1.199-1.2v-2.4
		c0-0.3,0.15-0.48,0.48-0.48h3c0.3,0,0.479,0.18,0.479,0.48v3.24c0,2.82-1.53,4.32-4.319,4.32h-3.36c-2.819,0-4.35-1.5-4.35-4.32
		V4.32c0-2.82,1.53-4.32,4.35-4.32h3.36c2.789,0,4.319,1.5,4.319,4.32V7.56z"/>
	<path fill="#A9A8A8" d="M255.09,23.999c-0.359,0-0.569-0.15-0.689-0.45l-3.78-8.91l-1.109,2.13v6.629c0,0.39-0.21,0.6-0.601,0.6
		h-2.88c-0.39,0-0.6-0.21-0.6-0.6V0.6c0-0.39,0.21-0.6,0.6-0.6h2.88c0.391,0,0.601,0.21,0.601,0.6v9.299l4.619-9.449
		c0.15-0.3,0.36-0.45,0.69-0.45h3.149c0.45,0,0.63,0.3,0.42,0.72l-5.1,10.469l5.43,12.12c0.21,0.39,0.03,0.69-0.449,0.69H255.09z"/>
	<path fill="#A9A8A8" d="M272.28,3.48c0,0.3-0.12,0.51-0.48,0.51h-7.499v6h5.729c0.3,0,0.479,0.18,0.479,0.51v2.97
		c0,0.33-0.18,0.51-0.479,0.51h-5.729v6.06h7.499c0.36,0,0.48,0.15,0.48,0.48v3c0,0.3-0.12,0.48-0.48,0.48h-11.039
		c-0.271,0-0.45-0.18-0.45-0.48V0.48c0-0.3,0.18-0.48,0.45-0.48H271.8c0.36,0,0.48,0.18,0.48,0.48V3.48z"/>
	<path fill="#A9A8A8" d="M285.601,0c0.329,0,0.479,0.18,0.479,0.48v3c0,0.3-0.15,0.48-0.479,0.48h-3.48v19.559
		c0,0.33-0.149,0.48-0.479,0.48h-3.12c-0.3,0-0.48-0.15-0.48-0.48V3.96h-3.479c-0.3,0-0.479-0.18-0.479-0.48v-3
		c0-0.3,0.18-0.48,0.479-0.48H285.601z"/>
</g>
</svg>
