<?xml version="1.0" encoding="utf-8"?>
<!-- Generator: Adobe Illustrator 16.0.0, SVG Export Plug-In . SVG Version: 6.00 Build 0)  -->
<!DOCTYPE svg PUBLIC "-//W3C//DTD SVG 1.1//EN" "http://www.w3.org/Graphics/SVG/1.1/DTD/svg11.dtd">
<svg version="1.1" id="Layer_1" xmlns="http://www.w3.org/2000/svg" xmlns:xlink="http://www.w3.org/1999/xlink" x="0px" y="0px"
	 width="100px" height="100px" viewBox="0 0 100 100" enable-background="new 0 0 100 100" xml:space="preserve">
<path id="g11" transform="matrix(1.3463089,0,0,1.3463089,-87.877922,-71.308561)" fill="#FFFFFF" d="M106.81,89.173l7.859-7.877
	L82.057,63.249c-0.464-0.257-0.913-0.429-1.339-0.527L106.81,89.173z M115.81,98.298l9.856-5.454c2.715-1.502,2.715-3.96,0-5.462
	l-9.565-5.294l-8.186,8.206L115.81,98.298L115.81,98.298z M78.694,62.912c-0.965,0.497-1.572,1.627-1.572,3.247v47.907
	c0,1.636,0.618,2.772,1.599,3.261l26.976-27.039L78.694,62.912z M106.802,91.409l-26.019,26.077
	c0.407-0.099,0.833-0.268,1.273-0.512L114.38,99.09L106.802,91.409L106.802,91.409z"/>
</svg>
