<?xml version="1.0" encoding="utf-8"?>
<!-- Generator: Adobe Illustrator 16.0.0, SVG Export Plug-In . SVG Version: 6.00 Build 0)  -->
<!DOCTYPE svg PUBLIC "-//W3C//DTD SVG 1.1//EN" "http://www.w3.org/Graphics/SVG/1.1/DTD/svg11.dtd">
<svg version="1.1" id="Layer_1" xmlns="http://www.w3.org/2000/svg" xmlns:xlink="http://www.w3.org/1999/xlink" x="0px" y="0px"
	 width="100px" height="100px" viewBox="0 0 100 100" enable-background="new 0 0 100 100" xml:space="preserve">
<path id="Page-1" fill="#FFFFFF" d="M75.507,61.336L75.507,61.336c-4.279-10.996-8.503-26.759-8.503-34.009
	c0-9.352-7.652-17.004-17.004-17.004c-9.349,0-17.002,7.652-17.005,17.004c0,7.25-4.219,23.011-8.502,34.009l6.422,28.342h38.438
	L75.507,61.336L75.507,61.336z M55.668,21.659c1.566,0,2.834,1.266,2.834,2.834s-1.268,2.834-2.834,2.834
	c-1.564,0-2.834-1.266-2.834-2.834S54.104,21.659,55.668,21.659L55.668,21.659z M44.331,21.659c1.568,0,2.834,1.266,2.834,2.834
	s-1.267,2.834-2.834,2.834c-1.563,0-2.834-1.266-2.834-2.834S42.768,21.659,44.331,21.659L44.331,21.659z M50,47.166
	c-3.132,0-6.409-2.991-7.694-5.668h15.388C56.409,44.175,53.133,47.166,50,47.166 M50,30.161c5.48,0,11.336,8.502,11.336,8.502
	H38.663C38.666,38.664,44.523,30.161,50,30.161 M64.173,67.005c0,9.394-6.347,17.004-14.173,17.004
	c-7.826,0-14.17-7.61-14.17-17.004S42.174,50,50,50C57.826,50,64.173,57.611,64.173,67.005 M38.487,60.741
	c-0.581-1.788-2.066-2.244-3.305-1.026l-2.61,2.573c-1.236,1.218-3.486,1.379-5.005,0.354l-4.427-2.994
	c-1.517-1.021-2.937-0.377-3.151,1.444l-0.629,5.306c-0.219,1.818-1.814,3.415-3.54,3.554l-3.653,0.296
	c-1.734,0.139-2.355,1.562-1.385,3.172c0,0,12.445,20.616,23.809,15.416C45.956,83.636,38.487,60.741,38.487,60.741 M87.834,70.248
	l-3.653-0.296c-1.725-0.139-3.321-1.735-3.537-3.554l-0.634-5.306c-0.214-1.821-1.631-2.466-3.147-1.444l-4.431,2.994
	c-1.52,1.024-3.77,0.863-5.001-0.354l-2.613-2.573c-1.239-1.218-2.724-0.762-3.305,1.026c0,0-7.47,22.895,3.897,28.095
	c11.366,5.2,23.808-15.416,23.808-15.416C90.191,71.81,89.566,70.387,87.834,70.248"/>
</svg>
